<mxfile host="www.draw.io" modified="2020-01-18T02:18:52.679Z" agent="Mozilla/5.0 (Windows NT 10.0; Win64; x64) AppleWebKit/537.36 (KHTML, like Gecko) Chrome/79.0.3945.88 Safari/537.36" etag="DONXO343I1DnaPWJy-zO" version="12.5.5" type="github">
  <diagram id="Qo-UfSBc8zHLeVuwYIwZ" name="第 1 页">
    <mxGraphModel dx="2062" dy="1105" grid="1" gridSize="10" guides="1" tooltips="1" connect="1" arrows="1" fold="1" page="1" pageScale="1" pageWidth="827" pageHeight="1169" math="0" shadow="0">
      <root>
        <mxCell id="0"/>
        <mxCell id="1" parent="0"/>
        <mxCell id="yVnqsMJHVSzi787fo_AW-9" value="1" style="verticalLabelPosition=middle;verticalAlign=middle;html=1;shape=mxgraph.basic.rect;fillColor2=none;strokeWidth=1;size=20;indent=5;fillColor=#dae8fc;strokeColor=#6c8ebf;labelPosition=center;align=center;" parent="1" vertex="1">
          <mxGeometry x="330" y="400" width="150" height="40" as="geometry"/>
        </mxCell>
        <mxCell id="yVnqsMJHVSzi787fo_AW-12" value="2" style="verticalLabelPosition=middle;verticalAlign=middle;html=1;shape=mxgraph.basic.rect;fillColor2=none;strokeWidth=1;size=20;indent=5;fillColor=#dae8fc;strokeColor=#6c8ebf;labelPosition=center;align=center;" parent="1" vertex="1">
          <mxGeometry x="330" y="360" width="150" height="40" as="geometry"/>
        </mxCell>
        <mxCell id="yVnqsMJHVSzi787fo_AW-13" value="0" style="verticalLabelPosition=middle;verticalAlign=middle;html=1;shape=mxgraph.basic.rect;fillColor2=none;strokeWidth=1;size=20;indent=5;fillColor=#fff2cc;strokeColor=#d6b656;labelPosition=center;align=center;" parent="1" vertex="1">
          <mxGeometry x="330" y="440" width="150" height="40" as="geometry"/>
        </mxCell>
        <mxCell id="yVnqsMJHVSzi787fo_AW-14" value="3" style="verticalLabelPosition=middle;verticalAlign=middle;html=1;shape=mxgraph.basic.rect;fillColor2=none;strokeWidth=1;size=20;indent=5;fillColor=#dae8fc;strokeColor=#6c8ebf;labelPosition=center;align=center;" parent="1" vertex="1">
          <mxGeometry x="330" y="320" width="150" height="40" as="geometry"/>
        </mxCell>
        <mxCell id="yVnqsMJHVSzi787fo_AW-15" value="4" style="verticalLabelPosition=middle;verticalAlign=middle;html=1;shape=mxgraph.basic.rect;fillColor2=none;strokeWidth=1;size=20;indent=5;fillColor=#f5f5f5;strokeColor=#666666;fontColor=#333333;labelPosition=center;align=center;" parent="1" vertex="1">
          <mxGeometry x="330" y="280" width="150" height="40" as="geometry"/>
        </mxCell>
        <mxCell id="yVnqsMJHVSzi787fo_AW-16" value="5" style="verticalLabelPosition=middle;verticalAlign=middle;html=1;shape=mxgraph.basic.rect;fillColor2=none;strokeWidth=1;size=20;indent=5;fillColor=#f5f5f5;strokeColor=#666666;fontColor=#333333;labelPosition=center;align=center;" parent="1" vertex="1">
          <mxGeometry x="330" y="240" width="150" height="40" as="geometry"/>
        </mxCell>
        <mxCell id="yVnqsMJHVSzi787fo_AW-17" value="6" style="verticalLabelPosition=middle;verticalAlign=middle;html=1;shape=mxgraph.basic.rect;fillColor2=none;strokeWidth=1;size=20;indent=5;fillColor=#f5f5f5;strokeColor=#666666;fontColor=#333333;labelPosition=center;align=center;" parent="1" vertex="1">
          <mxGeometry x="330" y="200" width="150" height="40" as="geometry"/>
        </mxCell>
        <mxCell id="yVnqsMJHVSzi787fo_AW-20" value="-2" style="text;html=1;strokeColor=none;fillColor=none;align=center;verticalAlign=middle;whiteSpace=wrap;rounded=0;fontSize=36;fontColor=#FF0A0A;" parent="1" vertex="1">
          <mxGeometry x="550" y="250" width="40" height="20" as="geometry"/>
        </mxCell>
        <mxCell id="yVnqsMJHVSzi787fo_AW-23" value="-1" style="text;html=1;strokeColor=none;fillColor=none;align=center;verticalAlign=middle;whiteSpace=wrap;rounded=0;fontSize=36;fontColor=#FF0A0A;" parent="1" vertex="1">
          <mxGeometry x="550" y="210" width="40" height="20" as="geometry"/>
        </mxCell>
        <mxCell id="yVnqsMJHVSzi787fo_AW-24" value="-3" style="text;html=1;strokeColor=none;fillColor=none;align=center;verticalAlign=middle;whiteSpace=wrap;rounded=0;fontSize=36;fontColor=#FF0A0A;" parent="1" vertex="1">
          <mxGeometry x="550" y="290" width="40" height="20" as="geometry"/>
        </mxCell>
        <mxCell id="yVnqsMJHVSzi787fo_AW-25" value="-4" style="text;html=1;strokeColor=none;fillColor=none;align=center;verticalAlign=middle;whiteSpace=wrap;rounded=0;fontSize=36;fontColor=#FF0A0A;" parent="1" vertex="1">
          <mxGeometry x="550" y="330" width="40" height="20" as="geometry"/>
        </mxCell>
        <mxCell id="yVnqsMJHVSzi787fo_AW-26" value="-5" style="text;html=1;strokeColor=none;fillColor=none;align=center;verticalAlign=middle;whiteSpace=wrap;rounded=0;fontSize=36;fontColor=#FF0A0A;" parent="1" vertex="1">
          <mxGeometry x="550" y="370" width="40" height="20" as="geometry"/>
        </mxCell>
        <mxCell id="yVnqsMJHVSzi787fo_AW-27" value="-6" style="text;html=1;strokeColor=none;fillColor=none;align=center;verticalAlign=middle;whiteSpace=wrap;rounded=0;fontSize=36;fontColor=#FF0A0A;" parent="1" vertex="1">
          <mxGeometry x="550" y="410" width="40" height="20" as="geometry"/>
        </mxCell>
        <mxCell id="yVnqsMJHVSzi787fo_AW-28" value="-7" style="text;html=1;strokeColor=none;fillColor=none;align=center;verticalAlign=middle;whiteSpace=wrap;rounded=0;fontSize=36;fontColor=#FF0A0A;" parent="1" vertex="1">
          <mxGeometry x="550" y="450" width="40" height="20" as="geometry"/>
        </mxCell>
        <mxCell id="yVnqsMJHVSzi787fo_AW-31" value="" style="shape=singleArrow;whiteSpace=wrap;html=1;fontSize=36;fontColor=#FF0A0A;" parent="1" vertex="1">
          <mxGeometry x="210" y="440" width="100" height="40" as="geometry"/>
        </mxCell>
        <mxCell id="yVnqsMJHVSzi787fo_AW-32" value="base" style="rounded=0;whiteSpace=wrap;html=1;fontSize=20;fontColor=#FF0A0A;" parent="1" vertex="1">
          <mxGeometry x="90" y="440" width="120" height="40" as="geometry"/>
        </mxCell>
        <mxCell id="yVnqsMJHVSzi787fo_AW-33" value="" style="shape=singleArrow;whiteSpace=wrap;html=1;fontSize=36;fontColor=#FF0A0A;" parent="1" vertex="1">
          <mxGeometry x="210" y="160" width="100" height="40" as="geometry"/>
        </mxCell>
        <mxCell id="yVnqsMJHVSzi787fo_AW-34" value="Top" style="rounded=0;whiteSpace=wrap;html=1;fontSize=20;fontColor=#FF0A0A;" parent="1" vertex="1">
          <mxGeometry x="90" y="160" width="120" height="40" as="geometry"/>
        </mxCell>
        <mxCell id="Y-nhqWssQxNx4EHHx-Nz-1" value="" style="shape=singleArrow;whiteSpace=wrap;html=1;fontSize=36;fontColor=#FF0A0A;" vertex="1" parent="1">
          <mxGeometry x="210" y="280" width="100" height="40" as="geometry"/>
        </mxCell>
        <mxCell id="Y-nhqWssQxNx4EHHx-Nz-2" value="stack_last" style="rounded=0;whiteSpace=wrap;html=1;fontSize=20;fontColor=#FF0A0A;" vertex="1" parent="1">
          <mxGeometry x="90" y="280" width="120" height="40" as="geometry"/>
        </mxCell>
      </root>
    </mxGraphModel>
  </diagram>
</mxfile>
